<svg width="18" height="43" viewBox="0 0 18 43" fill="none" xmlns="http://www.w3.org/2000/svg">
<path d="M12.734 31.039C13.2944 31.1609 13.7639 31.5489 13.9859 32.078L15.9439 36.7111C16.2723 37.4968 15.9964 38.405 15.2885 38.8749L11.3297 41.4943C10.6626 41.9361 9.78588 41.8739 9.18495 41.3481C8.89701 41.0977 8.67167 40.8849 8.50892 40.7222C-1.81895 30.3943 -1.36343 13.1638 9.5063 2.29409C9.59088 2.19072 9.68486 2.10301 9.77883 2.00904C10.4742 1.34493 11.5732 1.36009 12.2524 2.03923L15.5761 5.36293C16.1832 5.97008 16.2642 6.92189 15.7723 7.62661L12.4104 12.5846C12.094 13.0325 11.5866 13.3083 11.0387 13.3304L7.33449 13.5982C6.8429 13.6266 6.42944 13.9775 6.31651 14.4597C5.15896 19.279 5.2381 24.3137 6.5416 29.0943C6.65101 29.4919 6.97024 29.7923 7.37411 29.8767L12.734 31.039Z" stroke="black" stroke-width="2" stroke-miterlimit="10"/>
</svg>
