<svg width="95" height="44" viewBox="0 0 95 44" fill="none" xmlns="http://www.w3.org/2000/svg">
<g clip-path="url(#clip0_18_23)">
<path d="M13.9526 44.0002H1.06494V26.0869H13.6273V30.3352H5.55127V32.894H13.1668V37.014H5.55127V39.7265H13.9526V44.0002Z" fill="white"/>
<path d="M35.626 43.9739H31.9223L29.069 35.4018L26.3083 43.9739H22.6267L16.6245 26.0869H21.591L23.6617 32.382C24.0546 33.7387 24.2832 35.1972 24.5135 36.5276L27.4816 26.0869H30.6336L33.6936 36.5293C33.9239 35.1735 34.2233 33.7405 34.591 32.2556L36.5234 26.0887H41.4938L35.626 43.9739Z" fill="white"/>
<path d="M54.6062 41.0568H47.404L46.3463 44.0002H41.5142L48.7391 26.0869H53.3402L60.5423 44.0002H55.6647L54.6062 41.0568ZM51.0165 31.1026L48.9458 36.8103H53.0643L51.0165 31.1026Z" fill="white"/>
<path d="M78.3368 26.3943L71.8018 34.8609C74.0572 37.6243 76.6567 40.8487 78.8885 43.6894V43.9967H73.2517L68.6467 38.0379V44.0002H64.0889V26.0869H68.6467V31.9702C70.0274 30.0761 71.5229 27.9783 72.88 26.0869H78.3337L78.3368 26.3943Z" fill="white"/>
<path d="M94.3347 44.0002H81.447V26.0869H94.0101V30.3352H85.9349V32.894H93.5504V37.014H85.9349V39.7265H94.3331L94.3347 44.0002Z" fill="white"/>
<path d="M32.7551 0.0317859L24.5112 9.24365L27.603 12.6984L35.8469 3.48655L32.7551 0.0317859Z" fill="white"/>
<path d="M59.553 3.45415L67.7969 12.666L70.8886 9.21126L62.6447 -0.000612311L59.553 3.45415Z" fill="white"/>
<path d="M41.5402 8.83013C45.5994 7.00402 50.1415 7.05356 54.1681 8.96785C58.1947 10.8821 61.3763 14.5045 63.0139 19.039C63.0775 19.2146 63.1325 19.3946 63.1907 19.5728H68.0518C67.8463 18.7364 67.5989 17.9135 67.3108 17.108C65.7488 12.7778 63.073 9.06237 59.6216 6.4313C56.1702 3.80024 52.0981 2.37171 47.9202 2.32631C43.7423 2.28092 39.6462 3.6207 36.1496 6.17627C32.653 8.73185 29.9131 12.3885 28.2761 16.6839C27.9192 17.6253 27.617 18.5914 27.3716 19.5764H32.2351C33.0251 17.1562 34.2618 14.9488 35.8649 13.0975C37.468 11.2461 39.4016 9.79221 41.5402 8.83013Z" fill="white"/>
</g>
<defs>
<clipPath id="clip0_18_23">
<rect width="93.6" height="44" fill="white" transform="translate(0.899902)"/>
</clipPath>
</defs>
</svg>
