<svg width="2197" height="834" viewBox="0 0 2197 834" fill="none" xmlns="http://www.w3.org/2000/svg">
<path d="M832.119 136.007L696.323 0L416.059 280.701L135.796 0L0 136.007L280.264 416.709L0 697.41L135.796 833.417L416.059 552.774L696.323 833.417L832.119 697.41L551.913 416.709L832.119 136.007Z" fill="black"/>
<path d="M2197 641.619H1565.4V834H2197V641.619Z" fill="black"/>
<path d="M1760.39 0.29126L1624.54 136.299L2061.15 573.586H2197V437.579L1760.39 0.29126Z" fill="black"/>
<path d="M1179.43 33.6956C968.262 33.6956 797.019 205.148 797.019 416.708C797.019 628.269 968.204 799.721 1179.43 799.721C1390.67 799.721 1561.85 628.269 1561.85 416.708C1561.85 205.148 1390.61 33.6956 1179.43 33.6956ZM1179.43 687.907L908.659 416.708L1179.43 145.51L1450.21 416.708L1179.43 687.907Z" fill="black"/>
</svg>
